<svg width="64" height="65" xmlns="http://www.w3.org/2000/svg">
 <g>
  <title>Layer 1</title>
  <g id="svg_1">
   <rect id="svg_3" height="64.5898" opacity="0" width="64.2773" x="0" y="0"/>
   <path id="svg_4" d="m25.9766,51.0156c1.8359,0 3.8672,-0.2734 5.9765,-1.0547c2.1094,0.7813 4.1407,1.0547 5.9766,1.0547c5.1562,0 8.9844,-2.3437 10.3515,-3.5937c2.129,1.0742 4.1016,1.5625 5.9376,1.5625c5.7421,0 9.6874,-4.0625 9.6874,-10c0,-3.0469 -1.25,-6.211 -4.1406,-9.0821c2.3047,-2.3632 3.2422,-5.1171 3.2422,-7.9492c0,-5.9179 -4.6094,-11.289 -10.2539,-11.8945c-0.2148,-5.76172 -6.4453,-9.88282 -12.5781,-9.88282c-3.125,0 -6.0547,1.03516 -8.2227,3.32031c-2.1679,-2.28515 -5.0781,-3.32031 -8.2226,-3.32031c-6.1328,0 -12.3633,4.1211 -12.5586,9.88282c-5.66409,0.6055 -10.27346,5.9766 -10.27346,11.8945c0,2.8321 0.9375,5.586 3.24218,7.9492c-2.89062,2.8711 -4.14062,6.0352 -4.14062,9.0821c0,5.9375 3.94531,10 9.6875,10c1.8359,0 3.8086,-0.4883 5.9375,-1.5625c1.3672,1.25 5.1953,3.5937 10.3516,3.5937zm0,-3.125c-5.8204,0 -8.75,-3.125 -9.8047,-4.375c-2.5586,1.7774 -4.1602,2.3242 -6.4844,2.3242c-3.98438,0 -6.54297,-2.6757 -6.54297,-6.8554c0,-2.6953 0.99609,-4.8828 4.375,-7.9688c0.68359,-0.6054 0.60547,-1.6015 0.03906,-2.1679c-2.83203,-2.6954 -3.53515,-4.7071 -3.53515,-7.2657c0,-4.9609 3.84765,-8.7695 9.41406,-8.457c0.7617,0.0391 1.0156,-0.4688 0.9375,-1.0156c-0.7227,-4.90237 3.5742,-8.80862 9.5312,-8.80862c3.4766,0 5.879,1.34766 8.0469,3.84766c2.168,-2.5 4.6094,-3.84766 8.0469,-3.84766c5.957,0 10.2539,3.90625 9.5312,8.80862c-0.0781,0.5468 0.1758,1.0547 0.9571,1.0156c5.5469,-0.3125 9.3945,3.4961 9.3945,8.457c0,2.5586 -0.7031,4.5703 -3.5351,7.2657c-0.5665,0.5664 -0.6446,1.5625 0.039,2.1679c3.3789,3.086 4.375,5.2735 4.375,7.9688c0,4.1797 -2.5586,6.8554 -6.5429,6.8554c-2.3243,0 -3.9258,-0.5468 -6.4844,-2.3242c-1.0547,1.25 -3.9844,4.375 -9.8047,4.375c-1.8945,0 -3.6328,-0.2929 -5.9766,-1.2695" fill="#ffb4f1"/>
   <path id="svg_5" d="m31.9531,64.5898c2.2071,0 3.711,-0.7031 3.711,-1.7773c0,-1.5039 -0.4297,-5.3906 -0.4297,-9.3555c0,-5.5078 5.332,-15.4687 6.4648,-17.1289l-3.0273,-2.2656c-1.3672,2.4805 -3.0078,5.4297 -4.8242,9.5313l0,-8.8086l-3.7891,0l0,8.8281c-1.8164,-4.1016 -3.457,-7.0899 -4.8242,-9.5508l-3.0078,2.2656c1.1132,1.6602 6.4453,11.6211 6.4453,17.1289c0,3.9649 -0.4297,7.8516 -0.4297,9.3555c0,1.0742 1.5039,1.7773 3.7109,1.7773z" fill="#ac8e68"/>
   <path id="svg_6" d="m18.7305,39.1992c4.7265,0 7.2265,-2.1875 8.3203,-5.3711c1.3867,0.9961 2.9297,1.5235 4.9023,1.5235c1.9727,0 3.5157,-0.5274 4.9024,-1.5235c1.0937,3.1836 3.5937,5.3711 8.3203,5.3711c0.7422,0 1.3672,-0.6054 1.3672,-1.3867c0,-0.7422 -0.625,-1.3672 -1.3672,-1.3672c-4.3164,-0.0586 -5.9961,-2.4609 -6.211,-5.7422c-0.0586,-1.1523 -1.6406,-1.6406 -2.3632,-0.6445c-1.0547,1.3867 -2.4805,2.3437 -4.6485,2.3437c-2.1679,0 -3.5937,-0.957 -4.6484,-2.3437c-0.7227,-0.9961 -2.3047,-0.5078 -2.3633,0.6445c-0.2148,3.2813 -1.8945,5.6836 -6.2109,5.7422c-0.7422,0 -1.3672,0.625 -1.3672,1.3672c0,0.7813 0.625,1.3867 1.3672,1.3867z" fill="#ffb4f1"/>
  </g>
 </g>

</svg>